<?xml version="1.0" encoding="utf-8"?>
<!-- Generator: Adobe Illustrator 26.5.2, SVG Export Plug-In . SVG Version: 6.00 Build 0)  -->
<svg version="1.1" id="Layer_1" xmlns="http://www.w3.org/2000/svg" xmlns:xlink="http://www.w3.org/1999/xlink" x="0px" y="0px"
	 width="60px" height="60px" viewBox="0 0 60 60" style="enable-background:new 0 0 60 60;" xml:space="preserve">
<style type="text/css">
	.st0{fill:#FFC93C;}
</style>
<g>
	<path class="st0" d="M39,1.9c-1.2,1.2-2.4,2.4-3.6,3.6c-0.1,0.1-0.4,0.1-0.6,0.1c-6.7-1.2-12.9-0.1-18.6,3.7
		c-6.2,4.2-10,10.1-11,17.6C4.4,33.5,6,39.4,9.8,44.8c0.4,0.5,0.8,1,1.2,1.5c0,0.1,0.1,0.1,0.2,0.3c0.7-3.1,2-5.7,3.9-8
		s4.3-4.1,7.1-5.4c-3-3-4.3-6.6-3.5-10.7c0.6-3,2.2-5.3,4.6-7.1c4.5-3.3,11.1-2.7,15,1.4c4.1,4.3,4.5,11.6-0.5,16.4
		c5.7,2.7,9.4,7.2,11,13.4c1.5-1.7,2.7-3.6,3.7-5.6c2.1-4.4,2.9-9.1,2.3-13.9c-0.3-2.3-0.8-4.5-1.8-6.6c-0.3-0.7-0.2-1,0.3-1.5
		c1-0.9,1.8-1.8,2.8-2.7c5.1,8.8,5.5,23.5-4.4,34.2C41.3,61.4,24.1,62.6,12.5,54C0.4,45.1-3,29.1,3.8,16.3C10.7,3.2,25.6-2.5,39,1.9
		z M30,55.1c5.2-0.1,10-1.5,14.3-4.5c0.3-0.2,0.3-0.4,0.3-0.7c-0.1-1.7-0.5-3.3-1.1-4.8c-2.4-5.2-6.4-8.2-12-8.8
		c-3.8-0.4-7.3,0.6-10.3,3c-3.4,2.7-5.3,6.2-5.6,10.6c0,0.3,0,0.5,0.3,0.7C20,53.5,24.7,55,30,55.1z M23.1,24.6
		c0,3.8,3.1,6.9,6.9,6.9s6.8-3.1,6.8-6.8c0-3.8-3-6.8-6.8-6.9C26.2,17.8,23.1,20.8,23.1,24.6z"/>
	<path class="st0" d="M41,6.7c1.8,1.8,3.7,3.8,5.6,5.6c3.2-3.2,6.4-6.4,9.5-9.5C57.3,3.9,58.3,5,59.4,6c-4.2,4.2-8.4,8.4-12.7,12.7
		c-2.9-2.9-5.9-5.9-8.8-8.9C38.8,8.8,39.9,7.7,41,6.7z"/>
</g>
</svg>
