<?xml version="1.0" encoding="utf-8"?>
<!-- Generator: Adobe Illustrator 26.5.0, SVG Export Plug-In . SVG Version: 6.00 Build 0)  -->
<svg version="1.0" id="Layer_1" xmlns="http://www.w3.org/2000/svg" xmlns:xlink="http://www.w3.org/1999/xlink" x="0px" y="0px"
	 width="60px" height="60px" viewBox="0 0 60 60" enable-background="new 0 0 60 60" xml:space="preserve">
<g>
	<path fill="#FFC93C" d="M11.7,7.1c0,2-0.1,3.8,0,5.5c0.1,2.9,1.8,4.6,4.4,4.5c2.7,0,4.2-1.7,4.3-4.7c0-1.7,0-3.3,0-5.2
		c6.5,0,12.8,0,19.5,0c0,1.6,0,3.3,0,4.9c0,3.3,1.5,4.9,4.5,4.8c3,0,4.2-1.3,4.2-4.7c0-1.7,0-3.3,0-5c0.5-0.1,0.7-0.2,1-0.2
		c6.7-0.1,8.3-0.5,8.2,7.6c-0.2,12.6,0,25.1-0.1,37.7c0,3.8-1.2,5-4.9,5c-15.3,0-30.6,0-45.9,0c-3.6,0-4.9-1.2-4.9-4.8
		c0-13.6,0-27.1,0-40.7c0-3.5,1.2-4.7,4.7-4.7C8.4,7.1,9.9,7.1,11.7,7.1z M54.1,53.7c0-11,0-21.7,0-32.3c-16.2,0-32.3,0-48.3,0
		c0,10.9,0,21.6,0,32.3C22,53.7,38,53.7,54.1,53.7z"/>
	<path fill="#FFC93C" d="M41.7,8.9c0-1.2,0-2.5,0-3.7c0-1.7,0.9-2.5,2.5-2.6c1.5,0,2.5,0.8,2.6,2.3c0.1,2.7,0.1,5.4,0,8
		c-0.1,1.7-1.1,2.4-2.8,2.3c-1.6-0.1-2.4-0.9-2.4-2.5C41.7,11.5,41.7,10.2,41.7,8.9z"/>
	<path fill="#FFC93C" d="M18.7,9.2c0,1.2,0,2.5,0,3.7c0,1.6-0.9,2.4-2.4,2.4c-1.6,0.1-2.7-0.7-2.7-2.4c-0.1-2.6-0.1-5.2,0-7.8
		c0-1.7,1-2.5,2.7-2.5c1.6,0,2.5,0.9,2.5,2.6C18.7,6.6,18.7,7.9,18.7,9.2z"/>
	<path fill="#FFC93C" d="M38.6,25.7c0,2.3,0,4.2,0,6.3c-2.4,0-4.6,0-7.2,0c0-1.8-0.1-3.5,0.1-5.2c0-0.4,0.7-1.1,1.2-1.1
		C34.5,25.6,36.4,25.7,38.6,25.7z"/>
	<path fill="#FFC93C" d="M48.9,32c-2.3,0-4.6,0-7.1,0c0-1.8-0.1-3.5,0.1-5.2c0-0.4,0.7-0.8,1.2-1.1c0.2-0.1,0.6,0,0.9,0
		C49.7,25.6,49.9,25.8,48.9,32z"/>
	<path fill="#FFC93C" d="M10.7,34.9c2.2,0,4.4,0,7,0c0,1.8,0,3.7,0,5.5c0,0.3-0.5,0.7-0.8,0.8c-0.5,0.1-1,0.1-1.5,0.1
		C9.9,41.3,9.5,40.7,10.7,34.9z"/>
	<path fill="#FFC93C" d="M28.1,34.8c0,2.3,0,4.3,0,6.5c-2.1,0-4.1,0-6.1,0c-0.4,0-1-0.5-1-0.8c-0.1-1.6-0.1-3.2,0-4.8
		c0-0.3,0.6-0.8,1-0.8C23.9,34.7,26,34.8,28.1,34.8z"/>
	<path fill="#FFC93C" d="M31.3,34.9c2.6,0,4.8,0,7.2,0c0,2.1,0,4.1,0,6.4c-2,0-4,0.1-6-0.1c-0.4,0-1.1-0.7-1.1-1.2
		C31.3,38.4,31.3,36.7,31.3,34.9z"/>
	<path fill="#FFC93C" d="M41.8,34.9c2.6,0,4.8,0,7.2,0c0,2.1,0,4,0,6.4c-2.1,0-4.1,0.1-6.2-0.1c-0.3,0-0.9-0.7-0.9-1.1
		C41.7,38.4,41.8,36.8,41.8,34.9z"/>
	<path fill="#FFC93C" d="M10.4,44c2.6,0,4.8,0,7.2,0c0,2.1,0,4,0,6.4c-2.1,0-4.2,0.1-6.2-0.1c-0.3,0-0.9-0.7-0.9-1.1
		C10.4,47.5,10.4,45.8,10.4,44z"/>
	<path fill="#FFC93C" d="M20.9,44c2.6,0,4.8,0,7.2,0c0,2.1,0,4.1,0,6.3c-2.1,0-4.2,0.1-6.3-0.1c-0.3,0-0.9-0.7-0.9-1.2
		C20.8,47.5,20.9,45.8,20.9,44z"/>
	<path fill="#FFC93C" d="M38.4,43.9c0.1,0.5,0.2,0.7,0.2,0.9c0.4,5.7-0.4,6.4-6.1,5.6c-0.5-0.1-1.2-0.8-1.2-1.3
		c-0.2-1.6-0.1-3.2-0.1-5.1c1.3,0,2.4,0,3.5,0C36,43.9,37.1,43.9,38.4,43.9z"/>
	<path fill="#FFC93C" d="M41.8,44c2.6,0,4.8,0,7.1,0c0.1,0.3,0.2,0.5,0.2,0.7c0.4,5.6-0.4,6.4-6,5.6c-0.5-0.1-1.2-0.8-1.2-1.3
		C41.7,47.5,41.8,45.9,41.8,44z"/>
</g>
</svg>
