<?xml version="1.0" encoding="utf-8"?>
<!-- Generator: Adobe Illustrator 26.5.2, SVG Export Plug-In . SVG Version: 6.00 Build 0)  -->
<svg version="1.1" id="Layer_1" xmlns="http://www.w3.org/2000/svg" xmlns:xlink="http://www.w3.org/1999/xlink" x="0px" y="0px"
	 width="60px" height="60px" viewBox="0 0 60 60" style="enable-background:new 0 0 60 60;" xml:space="preserve">
<style type="text/css">
	.st0{fill:#FFC93C;}
</style>
<g>
	<path class="st0" d="M29.3,55.1c-3.4,0-6.8,0-10.1,0c-1.1,0-2.1-0.2-2.9-0.9c-0.9-0.7-1.4-1.7-1.4-2.8c0-3.2-0.1-6.5,0-9.7
		c0.2-5.4,2.8-9.5,7.7-12c1.7-0.9,3.5-1.3,5.4-1.4c2.4-0.1,4.9-0.2,7.2,0.4c5.2,1.3,9.6,6.3,10,11.6c0.2,3.7,0.1,7.4,0.1,11.1
		c0,0.5-0.2,1.1-0.4,1.6c-0.4,1-1.2,1.7-2.3,1.8c-1.9,0.2-3.8,0.3-5.7,0.4C34.3,55.2,31.8,55.2,29.3,55.1
		C29.3,55.1,29.3,55.1,29.3,55.1z"/>
	<path class="st0" d="M30,4.8c5.4,0,9.8,4.4,9.8,9.8c0,5.4-4.4,9.8-9.8,9.8c-5.4,0-9.8-4.4-9.8-9.8C20.2,9.2,24.6,4.8,30,4.8z"/>
	<path class="st0" d="M16.3,30c-1.2,1.3-2.3,2.6-3,4.2c-1.2,2.4-1.8,5.1-1.8,7.8c-0.1,3,0,6,0,9c0,0.1,0,0.3,0,0.5
		c-0.2,0-0.5,0.1-0.7,0.1c-2,0-4.1,0-6.1,0c-2.1,0-3.5-1.4-3.5-3.5c0-4,0-8,0-11.9c0-4.3,3.2-7.7,7.6-7.7c1.6,0,3.1,0.1,4.7,0.3
		C14.5,28.7,15.4,29.3,16.3,30z"/>
	<path class="st0" d="M48.6,51.4c0-1,0-2,0-2.9c0-2.6,0-5.2-0.1-7.8c-0.2-4-1.7-7.5-4.5-10.5c-0.1-0.1-0.1-0.1-0.2-0.2
		c0.2-0.1,0.3-0.3,0.5-0.4c0.9-0.7,2-1.1,3.2-1.2c1.9-0.2,3.8-0.3,5.7,0.1c3.4,0.8,5.8,3.8,5.8,7.4c0,4,0,8,0,12.1
		c0,2-1.3,3.4-3.2,3.5c-2.2,0.1-4.4,0-6.6,0C48.9,51.5,48.8,51.4,48.6,51.4z"/>
	<path class="st0" d="M10.2,12c3.4,0,6.2,2.8,6.2,6.2c0,3.4-2.8,6.2-6.2,6.2c-3.4,0-6.2-2.8-6.2-6.2C4,14.8,6.7,12,10.2,12z"/>
	<path class="st0" d="M49.9,12c3.4,0,6.2,2.8,6.2,6.2c0,3.4-2.8,6.2-6.2,6.2c-3.4,0-6.2-2.8-6.2-6.2C43.6,14.8,46.4,12,49.9,12z"/>
</g>
</svg>
