<?xml version="1.0" encoding="utf-8"?>
<!-- Generator: Adobe Illustrator 26.5.0, SVG Export Plug-In . SVG Version: 6.00 Build 0)  -->
<svg version="1.0" id="Layer_1" xmlns="http://www.w3.org/2000/svg" xmlns:xlink="http://www.w3.org/1999/xlink" x="0px" y="0px"
	 width="60px" height="60px" viewBox="0 0 60 60" enable-background="new 0 0 60 60" xml:space="preserve">
<path fill="#FFC93C" stroke="#FFC93C" stroke-miterlimit="10" d="M18.5,32c5.3-5.8,17.6-5.9,23,0c2.1-3.9,5.7-4.6,9.6-4.3
	c4.3,0.3,7.3,3.4,7.4,7.7c0.1,3.8,0,7.6,0,11.4c0,2.7-1.3,3.9-4,4s-5.3-0.1-8,0.1c-0.6,0-1.5,0.6-1.8,1.1c-0.9,1.6-2.2,2.4-4,2.4
	c-7.2,0-14.4,0.1-21.6-0.1c-1.3,0-2.9-1-3.6-2c-0.8-1.1-1.4-1.5-2.6-1.4c-2.5,0.1-5,0.1-7.6,0c-2.7-0.1-3.9-1.2-3.9-4
	c0-3.8,0-7.6,0-11.4c0.1-4.2,3-7.3,7.2-7.6C12.7,27.3,16.3,27.9,18.5,32z M41.5,50.7c0-3.9,0.3-7.7-0.1-11.4
	c-0.5-4.5-4.7-7.9-9.2-8.2c-1.5-0.1-3-0.1-4.4,0c-4.5,0.2-8.6,3.5-9.1,8c-0.4,3.8-0.1,7.6-0.1,11.6C26.2,50.7,33.7,50.7,41.5,50.7z
	 M14.5,47.1c0.5-3.9,0.9-7.5,1.3-11.2c0.2-2.4-1.1-4.2-3.1-4.8c-3.4-0.9-6.5,0.1-7.5,2.3C5.1,33.7,5,34,5,34.3c0,4.3,0,8.5,0,12.9
	C8.3,47.1,11.5,47.1,14.5,47.1z M45.5,47.1c3.2,0,6.3,0,9.6,0c0-4.3,0.1-8.4,0-12.5c0-1.8-1.3-3-3-3.4c-1.1-0.3-2.4-0.2-3.5-0.1
	c-2.8,0.1-4.5,1.8-4.3,4.5C44.5,39.4,45,43.2,45.5,47.1z"/>
<path fill="#FFC93C" stroke="#FFC93C" stroke-miterlimit="10" d="M39.7,14.2c0,5.3-4.6,9.8-9.9,9.6c-5.2-0.1-9.6-4.6-9.5-9.8
	c0-5.3,4.6-9.8,9.9-9.6C35.4,4.6,39.8,9,39.7,14.2z M23.7,14.2c0,3.6,2.8,6.3,6.3,6.3s6.2-2.7,6.3-6.2c0.1-3.6-2.7-6.4-6.2-6.4
	C26.5,7.9,23.7,10.6,23.7,14.2z"/>
<path fill="#FFC93C" stroke="#FFC93C" stroke-miterlimit="10" d="M16.5,17.8c0,3.3-2.8,6.1-6.1,6.1c-3.4,0-6.2-3-6.1-6.3s3-6,6.2-6
	C13.8,11.7,16.6,14.5,16.5,17.8z M10.1,15c-1.3,0.1-2.3,1-2.4,2.6s1.2,2.8,2.7,2.8c1.7-0.1,2.6-1,2.7-2.6C13.2,16.2,12,15,10.1,15z"
	/>
<path fill="#FFC93C" stroke="#FFC93C" stroke-miterlimit="10" d="M55.7,17.8c0,3.3-2.9,6.1-6.1,6.1c-3.4,0-6.2-3-6.1-6.3
	c0.1-3.3,3-6,6.3-6C53,11.7,55.8,14.5,55.7,17.8z M46.9,18.1c0.2,1.3,1,2.3,2.7,2.3c1.6,0.1,2.8-1.2,2.7-2.8c-0.1-1.7-1-2.6-2.7-2.6
	C48,15,46.8,16.2,46.9,18.1z"/>
</svg>
