<?xml version="1.0" encoding="utf-8"?>
<!-- Generator: Adobe Illustrator 26.5.0, SVG Export Plug-In . SVG Version: 6.00 Build 0)  -->
<svg version="1.0" id="Layer_1" xmlns="http://www.w3.org/2000/svg" xmlns:xlink="http://www.w3.org/1999/xlink" x="0px" y="0px"
	 width="60px" height="60px" viewBox="0 0 60 60" enable-background="new 0 0 60 60" xml:space="preserve">
<g>
	<path fill="#FFC93C" d="M29.7,59.4C13.5,59.1,0.3,45.7,0.6,29.6C1,13.5,14.2,0.5,30.2,0.6c16,0.1,29.3,13.6,29.1,29.5
		C59.1,46.4,45.8,59.6,29.7,59.4z M6,30C6,43.2,16.8,54,29.9,54c13.2,0,24-10.7,24.1-24C54.1,16.9,43.2,6,30,6C16.8,6,6,16.7,6,30z"
		/>
	<path fill="#FFC93C" d="M27.4,22.1c0-2.6,0-5.2,0-7.7c0-1.8,0.8-2.9,2.7-2.9c1.9,0,2.6,1.2,2.6,3c0,3.7,0.2,7.5-0.1,11.2
		c-0.1,2.4,0.6,4.1,2.4,5.6c1.6,1.4,3.1,3,4.6,4.6c1.2,1.2,1.5,2.6,0.3,4c-1.3,1.3-2.7,1.1-4-0.1c-2.5-2.5-5-4.9-7.4-7.5
		c-0.6-0.7-1-1.9-1.1-2.9C27.3,26.9,27.4,24.5,27.4,22.1z"/>
</g>
</svg>
