<?xml version="1.0" encoding="utf-8"?>
<!-- Generator: Adobe Illustrator 26.5.0, SVG Export Plug-In . SVG Version: 6.00 Build 0)  -->
<svg version="1.0" id="Layer_1" xmlns="http://www.w3.org/2000/svg" xmlns:xlink="http://www.w3.org/1999/xlink" x="0px" y="0px"
	 width="60px" height="60px" viewBox="0 0 60 60" enable-background="new 0 0 60 60" xml:space="preserve">
<g>
	<path fill="#FFC93C" d="M8.8,7c0.9-1,1.8-2,2.6-3c0.8,1,1.6,2,2.8,3.6c4,0,8.8,0,12.8,0C28.3,6,29.2,5,30,3.9c0.8,1,1.6,2,2.4,3
		c-0.2,0.2-0.3,0.4-0.5,0.6c4.9,0,9.7,0,13.8,0c1.2-1.5,2-2.5,2.9-3.6c0.8,1,1.7,1.9,2.5,2.9c-0.2,0.3-0.3,0.5-0.5,0.8
		c0.9,0,1.8,0,2.7,0c3.2,0.1,4.7,1.6,4.7,5c0,11.6,0,23.1,0,34.7c0,1.4,0,2.8,0,4.2c-0.1,2.9-1.6,4.5-4.5,4.5c-15.7,0-31.4,0-47.1,0
		c-2.8,0-4.4-1.6-4.4-4.4c0-13.2,0-26.4,0-39.6c0-2.9,1.6-4.4,4.5-4.5c0.9,0,1.8,0,2.7,0C9.1,7.4,9,7.2,8.8,7z M5.9,52.2
		c16.2,0,32.2,0,48.2,0c0-11.2,0-22.2,0-33.3c-16.1,0-32.1,0-48.2,0C5.9,30,5.9,41,5.9,52.2z M54.1,11.5c-16.2,0-32.2,0-48.3,0
		c0,1.2,0,2.3,0,3.4C22,15,38,15,54.1,15C54.1,13.8,54.1,12.8,54.1,11.5z"/>
	<path fill="#FFC93C" d="M29.9,33.7c-4.3,0-5.5-1.3-5.5-5.8c0-4.1,1.4-5.4,5.7-5.4c4.3,0,5.5,1.3,5.5,5.8
		C35.6,32.4,34.2,33.7,29.9,33.7z M28.3,26.3c0,1.3,0,2.4,0,3.5c1.2,0,2.3,0,3.4,0c0-1.2,0-2.3,0-3.5C30.5,26.3,29.5,26.3,28.3,26.3
		z"/>
	<path fill="#FFC93C" d="M44.8,33.7c-4.3,0-5.5-1.3-5.5-5.8c0-4.1,1.4-5.4,5.7-5.4c4.3,0,5.5,1.3,5.5,5.8
		C50.5,32.4,49.1,33.7,44.8,33.7z M46.6,29.9c0-1.2,0-2.3,0-3.5c-1.2,0-2.2,0-3.4,0c0,1.2,0,2.3,0,3.5
		C44.4,29.9,45.4,29.9,46.6,29.9z"/>
	<path fill="#FFC93C" d="M20.7,43.1c0,4.3-1.3,5.5-5.8,5.5c-4.1,0-5.4-1.4-5.4-5.7c0-4.3,1.3-5.5,5.8-5.5
		C19.4,37.4,20.7,38.8,20.7,43.1z M13.3,44.7c1.3,0,2.4,0,3.4,0c0-1.3,0-2.4,0-3.4c-1.3,0-2.3,0-3.4,0
		C13.3,42.5,13.3,43.6,13.3,44.7z"/>
	<path fill="#FFC93C" d="M29.9,48.6c-4.3,0-5.5-1.3-5.5-5.8c0-4.1,1.4-5.4,5.7-5.4c4.3,0,5.5,1.3,5.5,5.8
		C35.6,47.3,34.2,48.6,29.9,48.6z M28.3,41.3c0,1.3,0,2.4,0,3.4c1.3,0,2.4,0,3.4,0c0-1.2,0-2.3,0-3.4C30.5,41.3,29.5,41.3,28.3,41.3
		z"/>
	<path fill="#FFC93C" d="M44.8,48.6c-4.3,0-5.5-1.3-5.5-5.8c0-4.1,1.4-5.4,5.7-5.4c4.3,0,5.5,1.3,5.5,5.8
		C50.5,47.3,49.1,48.6,44.8,48.6z M46.6,44.8c0-1.3,0-2.4,0-3.5c-1.2,0-2.3,0-3.4,0c0,1.2,0,2.3,0,3.5
		C44.4,44.8,45.4,44.8,46.6,44.8z"/>
	<path fill="#FFC93C" d="M14.1,28.4c1-1.6,1.8-3.2,3-4.5c0.6-0.6,1.9-1.3,2.6-1c1.3,0.5,1.2,1.8,0.5,2.9c-1.4,2.2-2.7,4.5-4.2,6.7
		c-1.1,1.6-2.3,1.6-3.5,0.1c-0.7-0.9-1.4-1.9-2.1-2.8c-0.8-1-1.3-2.1-0.1-3.1c1.2-1,2.1-0.4,3,0.7C13.4,27.7,13.6,28,14.1,28.4z"/>
</g>
</svg>
