<?xml version="1.0" encoding="utf-8"?>
<!-- Generator: Adobe Illustrator 26.5.0, SVG Export Plug-In . SVG Version: 6.00 Build 0)  -->
<svg version="1.0" id="Layer_1" xmlns="http://www.w3.org/2000/svg" xmlns:xlink="http://www.w3.org/1999/xlink" x="0px" y="0px"
	 width="60px" height="60px" viewBox="0 0 60 60" enable-background="new 0 0 60 60" xml:space="preserve">
<path fill="#FFC93C" d="M18.2,11.7c0.6-5.5,1.9-6.7,7.2-6.7c3,0,6.1,0,9.1,0c5.4,0,6.6,1,7.3,6.7c3.3,0,6.7,0,10.1,0
	c7.4,0.1,6.5-1,6.5,6.4c0,10,0,20.1,0,30.1c0,4.9-1.7,6.6-6.5,6.6c-14.6,0-29.3,0-43.9,0c-4.7,0-6.4-1.8-6.4-6.4
	c0-11.2,0-22.5,0-33.7c0-2.8,0.2-3.1,3-3.1C9.1,11.7,13.6,11.7,18.2,11.7z M5.5,25.4c-0.1,0-0.3,0-0.4,0.1C5,26,4.9,26.6,4.9,27.1
	c0,7.2,0,14.3,0,21.5c0,2.7,0.4,3.1,3.1,3.1c14.6,0,29.3,0,43.9,0c2.7,0,3.1-0.4,3.1-3c0-7.2,0-14.3,0-21.5c0-0.5-0.1-1.1-0.2-1.6
	c-0.9,1.4-1.4,2.8-1.8,4.2c-1.5,4.4-2.6,5.3-7.2,5.3c-2.4,0-4.9,0-7.2,0c-0.7,3.4-0.7,3.4-4.1,3.4c-3,0-6.1,0-9.1,0
	c-3.4,0-3.4,0-4.1-3.4c-2.5,0-5,0-7.5,0c-4.3,0-5.5-0.9-6.9-5C6.5,28.4,6,26.9,5.5,25.4z M21.4,31.7c0.5-3.3,0.6-3.4,3.7-3.4
	c3,0,6.1,0,9.1,0c3.6,0,3.6,0,4.5,3.4c2.8,0,5.6,0.1,8.4-0.1c0.7,0,1.9-0.6,2.1-1.2c1.8-5,3.5-10.1,5.2-15.3c-16.4,0-32.5,0-48.8,0
	c1.7,5.2,3.3,10.2,5.1,15.2c0.2,0.6,1.3,1.3,2,1.4C15.6,31.8,18.5,31.7,21.4,31.7z M21.8,11.5c5.6,0,11,0,16.4,0
	c0.3-2.4-0.7-3.2-2.7-3.2c-3.7,0.1-7.4,0-11,0C22,8.4,21.6,8.9,21.8,11.5z M25.1,34.8c3.4,0,6.6,0,9.6,0c0-1.1,0-2,0-2.9
	c-3.3,0-6.4,0-9.6,0C25.1,32.9,25.1,33.7,25.1,34.8z"/>
</svg>
