<?xml version="1.0" encoding="utf-8"?>
<!-- Generator: Adobe Illustrator 26.5.0, SVG Export Plug-In . SVG Version: 6.00 Build 0)  -->
<svg version="1.0" id="Layer_1" xmlns="http://www.w3.org/2000/svg" xmlns:xlink="http://www.w3.org/1999/xlink" x="0px" y="0px"
	 width="60px" height="60px" viewBox="0 0 60 60" enable-background="new 0 0 60 60" xml:space="preserve">
<g>
	<path fill="#FFC93C" d="M7.1,30c0,6.2,0,12.4,0,18.6c0,2.7,1.5,4.2,4.2,4.2c5.9,0,11.7,0,17.6,0c2.6,0,4.1-1.5,4.1-4.1
		c0-2.1,0-4.1,0-6.2c0-1.3,1-2.3,2.2-2.5c1.3-0.2,2.5,0.5,2.9,1.8c0.1,0.2,0.1,0.5,0.1,0.8c0,2.5,0.1,4.9-0.1,7.4
		c-0.3,4.5-4.1,8.1-8.6,8.1c-6.3,0.1-12.7,0.1-19,0c-4.9-0.1-8.7-4.1-8.7-9c0-8.3,0-16.5,0-24.8c0-4.4,0-8.8,0-13.2
		c0-4.5,3-8.1,7.4-9c0.6-0.1,1.1-0.2,1.7-0.2c6.1,0,12.2,0,18.2,0c4.5,0,8.1,3,9,7.5c0.1,0.8,0.1,1.6,0.1,2.4c0,1.5,0,3.1,0,4.6
		c0,1.2-0.7,2.2-1.8,2.6c-1.1,0.4-2.2,0-2.9-0.8C33.2,17.6,33,17,33,16.3c0-1.7,0-3.4,0-5.1c0-2.6-1.5-4.1-4.1-4.1
		c-5.9,0-11.8,0-17.6,0c-2.6,0-4.1,1.5-4.1,4.1C7.1,17.5,7.1,23.8,7.1,30z"/>
	<path fill="#FFC93C" d="M49.1,32.6c-0.3,0-0.5,0-0.7,0c-7.3,0-14.6,0-21.9,0c-1.4,0-2.5-0.8-2.8-2.1c-0.3-1.6,0.8-3.1,2.5-3.2
		c1.3,0,2.6,0,3.9,0c6.1,0,12.2,0,18.3,0c0.2,0,0.4,0,0.7,0c-0.2-0.2-0.3-0.3-0.4-0.5c-1.5-1.5-3-2.9-4.4-4.4
		c-0.8-0.8-1-1.7-0.7-2.7c0.3-1,1.1-1.6,2.1-1.8c0.9-0.2,1.7,0.2,2.4,0.9c2.4,2.4,4.9,4.9,7.3,7.3c0.6,0.6,1.2,1.2,1.9,1.9
		c1.2,1.2,1.2,2.8,0,4c-3.1,3.1-6.1,6.1-9.2,9.2c-1.1,1.1-2.8,1.2-3.8,0.1c-1.1-1.1-1-2.7,0.1-3.8c1.4-1.5,2.9-2.9,4.4-4.4
		C48.8,33,48.9,32.9,49.1,32.6z"/>
</g>
</svg>
