<?xml version="1.0" encoding="utf-8"?>
<!-- Generator: Adobe Illustrator 26.5.0, SVG Export Plug-In . SVG Version: 6.00 Build 0)  -->
<svg version="1.0" id="Layer_1" xmlns="http://www.w3.org/2000/svg" xmlns:xlink="http://www.w3.org/1999/xlink" x="0px" y="0px"
	 width="60px" height="60px" viewBox="0 0 60 60" enable-background="new 0 0 60 60" xml:space="preserve">
<g>
	<path fill="#FFC93C" d="M47.5,29.9c0,7.5,0,14.9,0,22.4c0,4.7-2.3,7-7,7c-7.1,0-14.2,0-21.3,0c-4.4,0-6.8-2.3-6.8-6.7
		c0-15,0-30,0-45c0-4.5,2.3-6.8,6.8-6.8c7.2,0,14.5,0,21.7,0c4.1,0,6.5,2.3,6.6,6.5C47.6,14.8,47.5,22.3,47.5,29.9z M44.6,30.1
		c0-7.4,0-14.8,0-22.2c0-3.3-0.9-4.3-4.1-4.3c-7,0-14,0-21,0c-3.2,0-4.1,1-4.1,4.1c0,14.8,0,29.7,0,44.5c0,3.1,0.9,4.1,4.1,4.1
		c7,0,14,0,21,0c3.2,0,4.1-1,4.1-4.3C44.6,44.7,44.6,37.4,44.6,30.1z"/>
	<path fill="#FFC93C" d="M29.7,48.6c1.9,0,3.1,1.2,3.1,2.8c0,1.7-1,2.7-2.7,2.8c-1.8,0.1-2.9-0.9-3-2.7
		C27.1,49.7,28.2,48.8,29.7,48.6z"/>
	<path fill="#FFC93C" d="M32.3,8.5c-1,0-2,0.2-2.9-0.1c-0.5-0.1-1.1-0.9-1.1-1.3c0-0.5,0.7-1.3,1.2-1.3c2-0.2,3.9-0.2,5.9,0
		c0.5,0,1,0.9,1.5,1.3c-0.5,0.5-0.9,1.2-1.5,1.4C34.3,8.7,33.3,8.5,32.3,8.5C32.3,8.5,32.3,8.5,32.3,8.5z"/>
	<path fill="#FFC93C" d="M26.6,7c-0.9,0.7-1.5,1.5-2,1.4c-0.5-0.1-1.2-0.8-1.3-1.4c-0.1-0.3,0.8-1.2,1.2-1.2C25,5.8,25.6,6.4,26.6,7
		z"/>
</g>
</svg>
