<?xml version="1.0" encoding="utf-8"?>
<!-- Generator: Adobe Illustrator 26.5.0, SVG Export Plug-In . SVG Version: 6.00 Build 0)  -->
<svg version="1.0" id="Layer_1" xmlns="http://www.w3.org/2000/svg" xmlns:xlink="http://www.w3.org/1999/xlink" x="0px" y="0px"
	 width="361px" height="161px" viewBox="0 0 361 161" enable-background="new 0 0 361 161" xml:space="preserve">
<rect x="20.5" y="-99.8" fill="#FFBEBD" width="72" height="42"/>
<rect x="134.5" y="-94.8" fill="#FCFCFA" width="72" height="42"/>
<rect x="244.5" y="-94.8" fill="#337BAE" width="72" height="42"/>
<rect x="200.5" y="-149.8" fill="#1A405F" width="72" height="42"/>
<rect x="98.5" y="-149.8" fill="#2F2E33" width="72" height="42"/>
<g>
	<g>
		<g>
			<path fill="#1A405F" d="M185,91.4c-7.5-7.6-12.1-16.8-13.8-27.4c-2-12.8,0.5-24.5,9.2-34.5c4.1-4.6,9.4-6.4,15.4-4.9
				c5.9,1.4,9.8,5.2,11.4,11c1.8,6.5-0.1,12.1-5.3,16.3c-5.8,4.7-10.7,10-13.6,17c-2.6,6.1-3.5,12.4-2.7,19c0.1,0.8,0.1,1.7,0.1,2.6
				C185.6,90.8,185.3,91.1,185,91.4z"/>
			<path fill="#1A405F" d="M185.8,92.6c-0.5,0.2-0.9,0.5-1.4,0.5c-19.3-0.2-34.6-7.7-44.4-24.9c-3.3-5.8-5.2-12.1-3.9-18.9
				c1.5-8.1,9.5-13.4,17.6-12.1c8.3,1.3,14,8.8,13.2,17c-1.5,15.6,4,28.1,16.9,37.2c0.3,0.2,0.8,0.2,1.1,0.3c0,0,0,0,0,0
				c0.1,0.1,0.3,0.3,0.4,0.4l0,0C185.5,92.3,185.7,92.5,185.8,92.6L185.8,92.6z"/>
			<path fill="#1A405F" d="M185,91.4c0.3-0.3,0.5-0.6,0.8-0.8c0.2-0.6,0.5-1.3,0.5-1.9c0.5-11.8,5.1-21.5,15.2-28.2
				c3.4-2.2,7.1-3.6,11.2-3.7c6.2-0.3,11.2,4.4,11.3,10.5c0.1,6.1-4.7,11-10.9,10.9c-4.4,0-8.7,0.3-12.8,2.1
				c-5.6,2.3-8.4,4.8-13.5,12.2c-0.1-0.4-0.2-0.8-0.3-1.1c-0.2,0.4-0.4,0.8-0.6,1.3c0,0,0,0,0,0c-0.1-0.1-0.3-0.3-0.4-0.4l0,0
				c-0.1-0.1-0.3-0.3-0.4-0.4c0,0,0,0,0,0C185,91.7,185,91.5,185,91.4z"/>
			<path fill="#1A405F" d="M134.5,25.7c0.1-4.7,2.6-7.5,6-8.1c3.1-0.5,6.5,1.3,7.6,4.4c0.7,2,1.3,4.2,1.8,6.3
				c0.7,3.2-1.4,6.6-4.5,7.7c-3.1,1.2-7,0.1-8.4-2.9C135.7,30.4,135.1,27.4,134.5,25.7z"/>
			<path fill="#1A405F" d="M213.3,14.4c-1,3.4-2.7,7.2-6.4,9.7c-2.6,1.7-6.1,1-8.2-1.2c-2.2-2.1-2.8-5.3-1.4-8.1
				c1-1.9,2.1-3.7,3.3-5.4c1.8-2.5,5.1-3.5,8-2.5C211.4,7.8,213.3,10.5,213.3,14.4z"/>
			<path fill="#1A405F" d="M229.8,65.6c-3.1,0-5.1-1.5-5.6-3.8c-0.5-2.1,0.6-4.3,2.6-5.3c1.4-0.6,2.8-1.2,4.3-1.5
				c2.5-0.6,5.1,0.9,5.8,3.3c0.8,2.3-0.4,4.9-2.7,5.9C232.5,64.8,230.8,65.2,229.8,65.6z"/>
		</g>
	</g>
	<g>
		<path fill="#2F2E33" d="M20.2,152.6V85.9h26.9h3.3c9,0,15.1,1.6,18.2,4.7c3.1,3.1,4.7,9.2,4.7,18.2c0,8.9-1.5,14.8-4.5,17.8
			c-3,2.9-9,4.4-18.2,4.4l-2.9,0H32.9v21.5H20.2z M32.9,120.4h14.4c5.7,0,9.4-0.7,10.9-2c1.5-1.3,2.3-4.4,2.3-9.4
			c0-5.6-0.6-9.1-1.9-10.5c-1.3-1.4-4.6-2-10-2H32.9V120.4z"/>
		<path fill="#2F2E33" d="M92.3,85.9v66.7H81.1V85.9H92.3z"/>
		<path fill="#2F2E33" d="M114.9,119.4h-11.4c0-5.6,1.3-9.3,3.9-11.2c2.6-1.9,7.8-2.8,15.5-2.8c8.4,0,14.1,1.2,17,3.5
			c3,2.3,4.4,6.7,4.4,13.2v30.5h-11.2l0.5-6.4l-0.3,0c-2.1,4.7-7.1,7-14.9,7c-11.3,0-16.9-4.8-16.9-14.4c0-9.7,5.8-14.6,17.3-14.6
			c7.7,0,12.4,1.8,14.1,5.3h0.2v-7.6c0-3.6-0.6-6.1-1.9-7.3s-3.9-1.8-7.8-1.8C117.7,112.9,114.9,115.1,114.9,119.4z M122.3,131.7
			c-6.3,0-9.5,2.2-9.5,6.5c0,3,0.7,5,2,6c1.3,0.9,4,1.4,8.2,1.4c6.8,0,10.2-2.3,10.2-6.9C133.2,134,129.6,131.7,122.3,131.7z"/>
		<path fill="#2F2E33" d="M155.5,105.9h11.1l-0.4,7.9l0.2,0c2.2-5.6,7.1-8.4,14.6-8.4c11,0,16.6,5.1,16.6,15.4v31.8h-11.2v-28.1
			v-1.8l-0.2-3.3c-0.5-3.5-3.3-5.2-8.2-5.2c-7.5,0-11.3,3.6-11.3,10.7v27.7h-11.2V105.9z"/>
		<path fill="#1A405F" d="M286.8,85.9v66.7h-12.6v-36.3c0-2.9,0.1-6.2,0.2-9.9l0.2-5l0.2-4.9h-0.4l-1.5,4.6l-1.5,4.6
			c-1.4,4.2-2.4,7.2-3.2,9.2l-14.6,37.6h-11.5l-14.8-37.3c-0.8-2.1-1.9-5.1-3.2-9.2l-1.5-4.6l-1.5-4.6h-0.4l0.2,4.8l0.2,4.9
			c0.2,3.8,0.3,7,0.3,9.7v36.3h-12.6V85.9h20.6l11.9,30.9c0.8,2.1,1.9,5.2,3.2,9.2l1.5,4.6l1.5,4.6h0.4l1.4-4.6l1.5-4.6
			c1.2-3.9,2.2-6.9,3.1-9.2l11.7-31H286.8z"/>
		<path fill="#1A405F" d="M309.8,96.6v17.2h31.2v9.3h-31.2v18.8h33.3v10.6h-45.9V85.9h45.6v10.6H309.8z"/>
	</g>
</g>
<g>
</g>
<g>
</g>
<g>
</g>
<g>
</g>
<g>
</g>
<g>
</g>
<g>
</g>
<g>
</g>
<g>
</g>
<g>
</g>
<g>
</g>
<g>
</g>
<g>
</g>
<g>
</g>
<g>
</g>
</svg>
