<?xml version="1.0" encoding="utf-8"?>
<!-- Generator: Adobe Illustrator 26.5.0, SVG Export Plug-In . SVG Version: 6.00 Build 0)  -->
<svg version="1.0" id="Layer_1" xmlns="http://www.w3.org/2000/svg" xmlns:xlink="http://www.w3.org/1999/xlink" x="0px" y="0px"
	 width="60px" height="60px" viewBox="0 0 60 60" enable-background="new 0 0 60 60" xml:space="preserve">
<path fill="#FFFFFF" stroke="#FFFFFF" stroke-miterlimit="10" d="M59.4,30c0,16.4-13.2,29.5-29.6,29.4c-16,0-29.2-13.3-29.3-29.4
	c0-16.2,13.2-29.6,29.4-29.5C46.4,0.5,59.5,13.6,59.4,30z M33.4,33.4c3.5,0,6.5,0,9.6,0s4.8-1.2,4.8-3.4s-1.6-3.4-4.7-3.5
	c-1.3,0-2.6,0-3.9,0c-1.9,0-3.8,0-5.8,0c0-3.8,0.1-7.1,0-10.5c-0.1-2.6-1.9-4.1-4.2-3.6c-2,0.5-2.6,1.9-2.6,3.8c0,3.3,0,6.7,0,10.3
	c-1.1,0-1.8,0-2.6,0c-2.6,0-5.2,0-7.8,0c-2.5,0.1-4,1.4-4,3.5c0,1.9,1.5,3.2,3.9,3.4c0.9,0,1.8,0,2.8,0c2.5,0,5,0,7.8,0
	c0,1.1,0,2,0,2.8c0,2.7-0.1,5.4,0.1,8c0.1,2.8,3,4.4,5,2.8c0.9-0.7,1.6-2.3,1.7-3.5C33.5,40.3,33.4,37,33.4,33.4z"/>
</svg>
