<?xml version="1.0" encoding="utf-8"?>
<!-- Generator: Adobe Illustrator 26.5.2, SVG Export Plug-In . SVG Version: 6.00 Build 0)  -->
<svg version="1.1" id="Layer_1" xmlns="http://www.w3.org/2000/svg" xmlns:xlink="http://www.w3.org/1999/xlink" x="0px" y="0px"
	 width="60px" height="60px" viewBox="0 0 60 60" style="enable-background:new 0 0 60 60;" xml:space="preserve">
<style type="text/css">
	.st0{fill:#FFC93C;}
</style>
<path class="st0" d="M23.2,29.7c-7.9-4.2-9.5-12.9-7.4-18.7C18.1,4.7,24,0.7,30.9,1c6.3,0.2,12,4.9,13.7,11.2
	c1.7,6.4-0.9,13.8-7.8,17.5c0.3,0.1,0.6,0.2,0.8,0.3c9.7,3.4,15.5,10.2,17.2,20.3c0.4,2.1,0.3,4.2,0.3,6.3c0,1.3-1.1,2.4-2.4,2.4
	c-0.2,0-0.4,0-0.6,0c-14.8,0-29.6,0-44.3,0c-2.2,0-3-0.9-3.1-3.1c-0.1-4.6,0.6-9.1,2.7-13.3c3.3-6.3,8.3-10.6,15.1-12.8
	C22.8,29.8,22.9,29.8,23.2,29.7z M50.3,54c-0.3-7.6-3.5-13.5-10-17.3c-7.2-4.2-14.6-3.9-21.6,0.7c-5.8,3.9-8.6,9.6-8.9,16.6
	C23.3,54,36.7,54,50.3,54z M30,26.2c5.6,0,10.1-4.5,10.1-10C40.1,10.6,35.6,6,30,6C24.5,6,20,10.5,19.9,16.1
	C19.9,21.6,24.4,26.2,30,26.2z"/>
</svg>
